<svg xmlns="http://www.w3.org/2000/svg" xmlns:xlink="http://www.w3.org/1999/xlink" viewBox="0 0 1881.67 1034.56"><defs><style>.cls-1{fill:none;}.cls-2{clip-path:url(#clip-path);}.cls-3{fill:#8d35c0;}.cls-4{fill:#b09d51;}.cls-5{fill:#08b295;}.cls-6{fill:#fff;}.cls-7{fill:#353439;}.cls-8{fill:#36353a;}</style><clipPath id="clip-path" transform="translate(-62.31 -24.74)"><rect class="cls-1" width="1920" height="1080"/></clipPath></defs><g id="Layer_2" data-name="Layer 2"><g id="Layer_1-2" data-name="Layer 1"><g class="cls-2"><polygon class="cls-3" points="104.08 698.91 39.49 633.37 55.49 617.13 120.09 682.67 104.08 698.91"/><polygon class="cls-3" points="38.29 681.46 102.89 615.91 118.89 632.15 54.3 697.7 38.29 681.46"/><rect class="cls-4" x="1824.67" y="459.73" width="22.64" height="92.69"/><rect class="cls-4" x="1790.31" y="492.87" width="91.35" height="22.97"/><polygon class="cls-4" points="116.09 498.76 36.97 452.42 48.29 432.53 127.41 478.87 116.09 498.76"/><polygon class="cls-4" points="35.53 100.05 0 14.65 20.86 5.72 56.38 91.11 35.53 100.05"/><polygon class="cls-5" points="538.33 157.27 502.8 71.88 523.65 62.95 559.18 148.34 538.33 157.27"/><rect class="cls-3" x="914.15" y="149.1" width="92.69" height="22.64" transform="translate(1058.61 -824.82) rotate(90)"/><rect class="cls-4" x="1481.31" width="91.35" height="22.97"/><polygon class="cls-6" points="381.28 1014.79 307.39 960.28 320.7 941.7 394.59 996.22 381.28 1014.79"/><polygon class="cls-3" points="1745.15 944.46 1790.83 864.18 1810.43 875.67 1764.75 955.94 1745.15 944.46"/><ellipse class="cls-7" cx="303.69" cy="640.06" rx="21.6" ry="21.92"/><ellipse class="cls-8" cx="1296.09" cy="1011.42" rx="22.8" ry="23.13"/></g></g></g></svg>